<svg xmlns="http://www.w3.org/2000/svg" viewBox="0 0 64 64">
  <circle cx="32" cy="32" r="30" fill="#FFF1F6"/>
  <path d="M32 8 C32 8, 20 22, 20 34 C20 42, 25 48, 32 52 C39 48, 44 42, 44 34 C44 22, 32 8, 32 8Z" fill="#F73582" opacity="0.9"/>
  <path d="M32 14 C32 14, 24 25, 24 34 C24 40, 27 45, 32 48 C37 45, 40 40, 40 34 C40 25, 32 14, 32 14Z" fill="#F5A0B8" opacity="0.7"/>
  <path d="M32 20 C32 20, 28 28, 28 34 C28 38, 30 42, 32 44 C34 42, 36 38, 36 34 C36 28, 32 20, 32 20Z" fill="#FDECF2" opacity="0.8"/>
  <path d="M20 40 Q26 36, 32 38 Q38 36, 44 40 Q38 44, 32 42 Q26 44, 20 40Z" fill="#2F7D4A" opacity="0.6"/>
</svg>